<svg width="48" height="40" viewBox="0 0 48 40" fill="none" xmlns="http://www.w3.org/2000/svg">
<path d="M34.6035 8.02571C34.5424 6.58332 34.1731 5.45312 33.5158 4.61805L29.6395 0L29.6169 19.4344C29.6395 19.5794 29.6395 19.7474 29.6395 19.8941C29.5976 20.9382 29.3113 21.0618 28.777 20.2711C28.7586 20.2276 28.7368 20.2063 28.7368 20.185C28.5509 19.9146 28.3675 19.6638 28.1825 19.4736C27.752 19.0352 26.8477 18.3255 25.4752 17.3863C23.2997 15.9218 21.8234 14.7737 21.0019 13.9787C19.5473 12.5585 18.5199 10.8875 17.9044 9.00579L12 13.9164C12.4706 15.9439 13.5148 17.7804 15.095 19.4335C16.4499 20.8119 18.0283 21.9404 19.8538 22.7977C21.3929 23.5048 22.4606 24.2383 23.0945 24.989C23.5869 25.598 24.06 26.5977 24.4904 28H34.0517L30.5012 23.1934C30.0498 22.4624 30.2349 22.0658 31.0966 22.0445C31.1167 22.0445 31.1568 22.0445 31.1786 22.0445H48L43.1582 16.1529H34.6035V8.02571Z" fill="#F7F7F7" fill-opacity="0.5"/>
<path d="M43 39.9966L37.8421 33.1991H20.118C19.5974 31.7132 19.0157 30.5571 18.3703 29.7332C17.5798 28.7373 16.4775 27.9548 15.0619 27.3552C13.1903 26.5482 11.5675 25.4773 10.236 24.155C8.48757 22.4196 7.42694 20.3949 7.09661 18.1231L7.11444 18L0 23.7823C0.727748 25.8474 1.95736 27.808 3.66082 29.6911C5.24285 31.4467 6.84525 32.6872 8.44681 33.4495C9.9023 34.1106 11.1098 35.0011 12.0236 36.1345C12.8583 37.1076 13.5844 38.4104 14.1881 40H43V39.9966Z" fill="#F6F6F6" fill-opacity="0.5"/>
</svg>
